<svg width="43" height="34" viewBox="0 0 43 34" fill="none" xmlns="http://www.w3.org/2000/svg">
<g clip-path="url(#clip0_213_47)">
<path d="M4.74352 4.44333C4.66239 2.13167 6.47755 0 8.93107 0H34.072C36.5256 0 38.3407 2.13167 38.2596 4.44333C38.1816 6.66392 38.2828 9.54042 39.0124 11.8858C39.7443 14.2385 40.9786 15.7256 43 15.9167V18.0833C40.9786 18.2744 39.7443 19.7615 39.0124 22.1142C38.2828 24.4596 38.1816 27.3361 38.2596 29.5568C38.3407 31.8683 36.5256 34 34.072 34H8.93107C6.47755 34 4.66239 31.8683 4.74361 29.5568C4.82146 27.3361 4.72026 24.4596 3.9906 22.1142C3.25876 19.7615 2.0215 18.2744 0 18.0833V15.9167C2.02142 15.7256 3.25876 14.2385 3.9906 11.8858C4.72026 9.54042 4.82146 6.66392 4.74352 4.44333Z" fill="url(#paint0_linear_213_47)"/>
<g filter="url(#filter0_d_213_47)">
<path d="M22.4325 26.0382C26.4047 26.0382 28.7983 24.1083 28.7983 20.9253C28.7983 18.5192 27.0904 16.7773 24.5544 16.5015V16.4012C26.4176 16.1005 27.8797 14.3837 27.8797 12.4663C27.8797 9.73442 25.706 7.95483 22.3937 7.95483H14.9409V26.0382H22.4325ZM17.8392 10.2482H21.695C23.7911 10.2482 24.9814 11.1755 24.9814 12.8548C24.9814 14.6468 23.597 15.6493 21.0869 15.6493H17.8392V10.2482ZM17.8392 23.7449V17.7923H21.6691C24.4121 17.7923 25.8354 18.7948 25.8354 20.7498C25.8354 22.7047 24.451 23.7449 21.8373 23.7449H17.8392Z" fill="url(#paint1_linear_213_47)"/>
<path d="M22.4325 26.0382C26.4047 26.0382 28.7983 24.1083 28.7983 20.9253C28.7983 18.5192 27.0904 16.7773 24.5544 16.5015V16.4012C26.4176 16.1005 27.8797 14.3837 27.8797 12.4663C27.8797 9.73442 25.706 7.95483 22.3937 7.95483H14.9409V26.0382H22.4325ZM17.8392 10.2482H21.695C23.7911 10.2482 24.9814 11.1755 24.9814 12.8548C24.9814 14.6468 23.597 15.6493 21.0869 15.6493H17.8392V10.2482ZM17.8392 23.7449V17.7923H21.6691C24.4121 17.7923 25.8354 18.7948 25.8354 20.7498C25.8354 22.7047 24.451 23.7449 21.8373 23.7449H17.8392Z" stroke="white"/>
</g>
</g>
<defs>
<filter id="filter0_d_213_47" x="-1.55908" y="-4.54517" width="46.8574" height="51.0833" filterUnits="userSpaceOnUse" color-interpolation-filters="sRGB">
<feFlood flood-opacity="0" result="BackgroundImageFix"/>
<feColorMatrix in="SourceAlpha" type="matrix" values="0 0 0 0 0 0 0 0 0 0 0 0 0 0 0 0 0 0 127 0" result="hardAlpha"/>
<feOffset dy="4"/>
<feGaussianBlur stdDeviation="8"/>
<feColorMatrix type="matrix" values="0 0 0 0 0 0 0 0 0 0 0 0 0 0 0 0 0 0 0.15 0"/>
<feBlend mode="normal" in2="BackgroundImageFix" result="effect1_dropShadow_213_47"/>
<feBlend mode="normal" in="SourceGraphic" in2="effect1_dropShadow_213_47" result="shape"/>
</filter>
<linearGradient id="paint0_linear_213_47" x1="6.38945" y1="0.899834" x2="43.7377" y2="30.7785" gradientUnits="userSpaceOnUse">
<stop stop-color="#9013FE"/>
<stop offset="1" stop-color="#6610F2"/>
</linearGradient>
<linearGradient id="paint1_linear_213_47" x1="16.2517" y1="9.14508" x2="24.5541" y2="23.296" gradientUnits="userSpaceOnUse">
<stop stop-color="white"/>
<stop offset="1" stop-color="#F1E5FC"/>
</linearGradient>
<clipPath id="clip0_213_47">
<rect width="43" height="34" fill="white"/>
</clipPath>
</defs>
</svg>
