<svg width="34" height="34" viewBox="0 0 34 34" fill="none" xmlns="http://www.w3.org/2000/svg">
<path d="M17.1816 19.8689C16.6705 20.1037 16.1106 20.4097 14.9896 21.0249C14.5646 21.2639 14.1205 21.503 13.7072 21.7282C13.6785 21.6996 13.6488 21.6634 13.6201 21.6337C11.4026 19.2643 7.30139 17.5909 7.47564 14.4087C7.54045 13.2495 7.93889 10.2065 15.352 6.51112C21.4528 3.50424 26.3074 4.33724 27.1457 6.18493C28.3506 8.81887 24.5436 13.7202 18.243 14.431C17.5457 14.5724 16.8255 14.5554 16.1356 14.381C15.4458 14.2067 14.804 13.8795 14.2576 13.4237C13.924 13.0614 13.874 13.0402 13.7508 13.1124C13.5478 13.2187 13.6785 13.547 13.7508 13.7351C13.9911 14.1702 14.3162 14.5527 14.707 14.8601C15.0977 15.1674 15.5461 15.3932 16.0256 15.5243C18.505 16.0602 21.0902 15.8042 23.4163 14.7922C27.235 13.3143 30.2163 9.20562 29.343 5.76099C28.4664 2.26856 22.6694 1.11681 17.1848 3.06543C13.75 4.22291 10.5766 6.04501 7.84539 8.42787C4.82364 11.2541 4.34552 13.7106 4.54102 14.7391C5.24439 18.3909 10.2785 20.7677 12.2973 22.5283C12.191 22.5867 12.1018 22.6346 12.0221 22.6802C11.0148 23.1807 7.17496 25.1877 6.21764 27.3106C5.1307 29.7161 6.39189 31.4406 7.22489 31.6722C8.48022 31.9729 9.79812 31.874 10.9946 31.3894C12.191 30.9048 13.2062 30.0587 13.8985 28.9692C14.4863 28.0657 14.8473 27.0336 14.9507 25.9607C15.0541 24.8878 14.8969 23.8058 14.4924 22.8067C14.731 22.6163 14.9856 22.4468 15.2531 22.2999C15.7674 21.996 16.2572 21.6964 16.6918 21.4647C18.1797 20.7678 19.8034 20.4089 21.4465 20.4139C24.8953 20.8198 25.5764 22.9714 25.4457 23.8777C25.3846 24.1992 25.2553 24.504 25.0665 24.7714C24.8777 25.0388 24.6339 25.2626 24.3513 25.4279C24.1123 25.5798 24.0326 25.6308 24.0538 25.7392C24.0825 25.8986 24.1983 25.8911 24.4013 25.8624C24.9194 25.6987 25.376 25.382 25.7108 24.954C26.0457 24.526 26.2433 24.0067 26.2776 23.4644C26.3839 21.3394 24.3577 19.0082 20.7707 19.0295C19.6966 19.0313 18.6333 19.2432 17.6406 19.6532C17.4812 19.7191 17.3264 19.7899 17.1763 19.8657L17.1816 19.8689ZM12.055 28.1978C10.9096 29.4441 9.31589 29.9148 8.62739 29.5164C7.88364 29.0914 8.17796 27.2479 9.58364 25.9294C10.4162 25.1793 11.316 24.5074 12.2718 23.9223C12.4386 23.8161 12.6851 23.6758 12.9815 23.4973C13.0325 23.4686 13.0612 23.4537 13.0612 23.4537L13.2355 23.3475C13.4862 24.188 13.509 25.0801 13.3016 25.9324C13.0941 26.7846 12.6639 27.5665 12.055 28.1978Z" fill="#CD6799"/>
</svg>
