<svg width="36" height="34" viewBox="0 0 36 34" fill="none" xmlns="http://www.w3.org/2000/svg">
<path d="M36 16.9568C36 14.4346 33.0135 12.0444 28.4346 10.5621C29.4912 5.6264 29.0216 1.69956 26.9523 0.442351C26.4753 0.14745 25.9177 0.00776044 25.3086 0.00776044V1.73836C25.6461 1.73836 25.9177 1.80821 26.1451 1.94014C27.1431 2.54546 27.576 4.85035 27.2385 7.81488C27.1578 8.54437 27.0257 9.31267 26.8642 10.0965C25.426 9.72397 23.8557 9.43683 22.2046 9.25058C21.214 7.81488 20.1867 6.5111 19.1521 5.3703C21.5442 3.01886 23.7896 1.7306 25.3159 1.7306V0C23.298 0 20.6563 1.52107 17.9853 4.15966C15.3143 1.53659 12.6726 0.0310423 10.6547 0.0310423V1.76165C12.1737 1.76165 14.4264 3.04214 16.8186 5.37806C15.7913 6.51887 14.764 7.81488 13.788 9.25058C12.1296 9.43683 10.5593 9.72397 9.12108 10.1042C8.9523 9.32819 8.82756 8.57541 8.7395 7.85368C8.39462 4.88915 8.82022 2.58426 9.81084 1.97118C10.031 1.83149 10.3172 1.76941 10.6547 1.76941V0.0388028C10.0383 0.0388028 9.48064 0.178493 8.99633 0.473394C6.93437 1.7306 6.47208 5.64968 7.53608 10.5699C2.97187 12.0599 0 14.4424 0 16.9568C0 19.479 2.98655 21.8692 7.56543 23.3515C6.50876 28.2872 6.97839 32.2141 9.0477 33.4713C9.52466 33.7662 10.0823 33.9059 10.6987 33.9059C12.7167 33.9059 15.3583 32.3848 18.0294 29.7462C20.7004 32.3693 23.342 33.8748 25.36 33.8748C25.9764 33.8748 26.534 33.7351 27.0183 33.4402C29.0803 32.183 29.5426 28.2639 28.4786 23.3437C33.0281 21.8615 36 19.4712 36 16.9568ZM26.446 11.7805C26.1745 12.7816 25.8369 13.8138 25.4554 14.8459C25.1545 14.2251 24.839 13.6043 24.4941 12.9834C24.1565 12.3626 23.797 11.7572 23.4374 11.1674C24.4794 11.3304 25.4847 11.5322 26.446 11.7805ZM23.0852 20.0455C22.5128 21.0932 21.9258 22.0865 21.3168 23.01C20.2234 23.1109 19.1154 23.1653 18 23.1653C16.892 23.1653 15.7839 23.1109 14.6979 23.0178C14.0889 22.0943 13.4945 21.1087 12.9221 20.0688C12.3645 19.0522 11.8581 18.02 11.3958 16.9801C11.8508 15.9402 12.3645 14.9003 12.9148 13.8836C13.4872 12.836 14.0742 11.8426 14.6832 10.9191C15.7766 10.8182 16.8846 10.7639 18 10.7639C19.108 10.7639 20.2161 10.8182 21.3021 10.9113C21.9111 11.8348 22.5055 12.8204 23.0779 13.8603C23.6355 14.877 24.1419 15.9091 24.6042 16.949C24.1419 17.989 23.6355 19.0289 23.0852 20.0455ZM25.4554 19.0366C25.8516 20.0766 26.1892 21.1165 26.468 22.1253C25.5067 22.3737 24.4941 22.5832 23.4448 22.7462C23.8043 22.1486 24.1639 21.5355 24.5014 20.9069C24.839 20.2861 25.1545 19.6575 25.4554 19.0366ZM18.0147 27.3171C17.3322 26.5721 16.6498 25.7418 15.9747 24.8338C16.6351 24.8648 17.3102 24.8881 17.9927 24.8881C18.6824 24.8881 19.3649 24.8726 20.0326 24.8338C19.3722 25.7418 18.6898 26.5721 18.0147 27.3171ZM12.5552 22.7462C11.5132 22.5832 10.5079 22.3814 9.54668 22.1331C9.81818 21.132 10.1557 20.0998 10.5373 19.0677C10.8382 19.6885 11.1537 20.3094 11.4986 20.9302C11.8435 21.5511 12.1957 22.1564 12.5552 22.7462ZM17.978 6.59647C18.6604 7.34148 19.3428 8.17186 20.0179 9.07985C19.3575 9.04881 18.6824 9.02552 18 9.02552C17.3102 9.02552 16.6278 9.04105 15.9601 9.07985C16.6205 8.17186 17.3029 7.34148 17.978 6.59647ZM12.5479 11.1674C12.1883 11.765 11.8288 12.3781 11.4912 13.0067C11.1537 13.6275 10.8382 14.2484 10.5373 14.8692C10.1411 13.8293 9.80351 12.7894 9.52466 11.7805C10.4859 11.5399 11.4986 11.3304 12.5479 11.1674ZM5.90705 20.8837C3.30942 19.7118 1.62903 18.1752 1.62903 16.9568C1.62903 15.7384 3.30942 14.1941 5.90705 13.03C6.53812 12.7428 7.22788 12.4867 7.93967 12.2462C8.35793 13.7672 8.90828 15.3504 9.59071 16.9723C8.91561 18.5865 8.37261 20.1619 7.96168 21.6752C7.23522 21.4346 6.54546 21.1708 5.90705 20.8837ZM9.85487 31.9735C8.85691 31.3682 8.42397 29.0633 8.76152 26.0987C8.84224 25.3692 8.97432 24.601 9.13575 23.8171C10.574 24.1896 12.1443 24.4768 13.7954 24.663C14.786 26.0987 15.8133 27.4025 16.8479 28.5433C14.4558 30.8948 12.2104 32.183 10.6841 32.183C10.3539 32.1753 10.075 32.1054 9.85487 31.9735ZM27.2605 26.0599C27.6054 29.0245 27.1798 31.3294 26.1892 31.9424C25.969 32.0821 25.6828 32.1442 25.3453 32.1442C23.8263 32.1442 21.5736 30.8637 19.1814 28.5278C20.2087 27.387 21.236 26.091 22.212 24.6553C23.8704 24.469 25.4407 24.1819 26.8789 23.8016C27.0477 24.5854 27.1798 25.3382 27.2605 26.0599ZM30.0856 20.8837C29.4545 21.1708 28.7648 21.4269 28.053 21.6675C27.6347 20.1464 27.0844 18.5632 26.402 16.9413C27.077 15.3271 27.6201 13.7517 28.031 12.2384C28.7574 12.479 29.4472 12.7428 30.0929 13.03C32.6906 14.2018 34.371 15.7384 34.371 16.9568C34.3636 18.1752 32.6832 19.7196 30.0856 20.8837Z" fill="#61DAFB"/>
<path d="M17.9928 20.5033C19.8449 20.5033 21.3463 18.9154 21.3463 16.9567C21.3463 14.998 19.8449 13.4102 17.9928 13.4102C16.1408 13.4102 14.6394 14.998 14.6394 16.9567C14.6394 18.9154 16.1408 20.5033 17.9928 20.5033Z" fill="#61DAFB"/>
</svg>
