<svg width="24" height="37" viewBox="0 0 24 37" fill="none" xmlns="http://www.w3.org/2000/svg">
<path d="M2.1832 33.133L0 7.07471H24L21.8168 33.1232L11.9815 36.0249L2.1832 33.133Z" fill="#E44D26"/>
<path d="M12 33.8135L19.944 31.4719L21.8168 9.20605H12V33.8135Z" fill="#F16529"/>
<path d="M12.0001 18.873H8.01889L7.74624 15.6005H12.0001V12.4089H11.9909H4.46118L4.53662 13.2589L5.27053 22.0653H12.0001V18.873Z" fill="#EBEBEB"/>
<path d="M12 27.1686L11.9908 27.1792L8.64019 26.2082L8.42379 23.6667H6.79515H5.41138L5.82565 28.68L11.9908 30.5009L12 30.4911V27.1686Z" fill="#EBEBEB"/>
<path d="M2.23022 0H3.75496V1.60142H5.148V0H6.67273V4.85352H5.148V3.22255H3.75496V4.85352H2.23022V0Z" fill="#1D1D1D"/>
<path d="M8.68712 1.61127H7.34106V0H11.5579V1.61127H10.2119V4.85352H8.68712V1.61127Z" fill="#1D1D1D"/>
<path d="M12.2358 0H13.8267L14.8054 1.71119L15.7835 0H17.3745V4.85352H15.859V2.45139L14.8048 4.18227H14.7763L13.7221 2.45139V4.86337H12.2258V0H12.2358Z" fill="#1D1D1D"/>
<path d="M18.1367 0H19.6615V3.2521H21.8076V4.85352H18.1367V0Z" fill="#1D1D1D"/>
<path d="M11.9907 18.873V22.0653H15.6894L15.3413 26.2082L11.9907 27.1686V30.501L18.1459 28.68L18.1929 28.1396L18.899 19.7336L18.9745 18.873H18.1651H11.9907Z" fill="white"/>
<path d="M11.9907 12.4089V14.3903V15.5907V15.6005H19.2378H19.2471L19.3133 14.88L19.445 13.2589L19.5204 12.4089H11.9907Z" fill="white"/>
</svg>
