<svg width="49" height="25" viewBox="0 0 49 25" fill="none" xmlns="http://www.w3.org/2000/svg">
<path d="M24.5 0C17.9667 0 13.8833 2.68576 12.25 8.05713C14.7 5.37137 17.5583 4.36422 20.825 5.0357C22.6887 5.41873 24.0209 6.53052 25.4955 7.76096C27.8977 9.76565 30.6776 12.0857 36.75 12.0857C43.2833 12.0857 47.3667 9.39993 49 4.02856C46.55 6.71432 43.6917 7.72147 40.425 7.04999C38.5613 6.66696 37.2291 5.55517 35.7545 4.32473C33.3523 2.32004 30.5724 0 24.5 0ZM12.25 12.0857C5.71673 12.0857 1.63327 14.7715 0 20.1428C2.45 17.4571 5.30827 16.4499 8.575 17.1214C10.4387 17.5044 11.7709 18.6162 13.2455 19.8467C15.6477 21.8513 18.4276 24.1714 24.5 24.1714C31.0333 24.1714 35.1167 21.4856 36.75 16.1143C34.3 18.8 31.4417 19.8072 28.175 19.1357C26.3113 18.7526 24.9791 17.6409 23.5045 16.4104C21.1023 14.4057 18.3224 12.0857 12.25 12.0857Z" fill="url(#paint0_linear_213_55)"/>
<defs>
<linearGradient id="paint0_linear_213_55" x1="-348.472" y1="1188.07" x2="-250.146" y2="2530.09" gradientUnits="userSpaceOnUse">
<stop stop-color="#2298BD"/>
<stop offset="1" stop-color="#0ED7B5"/>
</linearGradient>
</defs>
</svg>
