<svg width="29" height="29" viewBox="0 0 29 29" fill="none" xmlns="http://www.w3.org/2000/svg">
<g clip-path="url(#clip0_213_50)">
<path d="M2.06108 14.4995C2.06108 19.4234 4.92241 23.6781 9.07155 25.6946L3.13801 9.43724C2.42672 11.0301 2.05974 12.7551 2.06108 14.4995ZM22.8972 13.8718C22.8972 14.9367 22.488 16.1724 21.95 17.8929L20.7095 22.039L16.2143 8.66753C16.9627 8.62824 17.638 8.54895 17.638 8.54895C18.3081 8.46966 18.2293 7.4848 17.5583 7.52432C17.5583 7.52432 15.544 7.68219 14.2432 7.68219C13.0209 7.68219 10.9667 7.52432 10.9667 7.52432C10.2964 7.4848 10.2178 8.50965 10.8881 8.54895C10.8881 8.54895 11.5227 8.62824 12.1925 8.66753L14.1308 13.9772L11.4084 22.1412L6.87864 8.66776C7.62846 8.62847 8.30255 8.54918 8.30255 8.54918C8.97214 8.46989 8.89309 7.48503 8.22255 7.52456C8.22255 7.52456 6.20857 7.68243 4.9075 7.68243C4.67412 7.68243 4.39885 7.67651 4.10702 7.66775C6.33118 4.29069 10.1544 2.06108 14.5 2.06108C17.7384 2.06108 20.6868 3.29896 22.9001 5.32643C22.8461 5.32336 22.7938 5.31649 22.7386 5.31649C21.5171 5.31649 20.6501 6.38088 20.6501 7.52432C20.6501 8.54895 21.2409 9.41664 21.8714 10.4413C22.345 11.2699 22.8972 12.3345 22.8972 13.8718ZM14.7182 15.5876L18.5422 26.0627C18.5664 26.1224 18.596 26.1798 18.6307 26.2341C17.3377 26.6885 15.9485 26.9392 14.5 26.9392C13.3105 26.9392 12.1271 26.7684 10.9861 26.4322L14.7182 15.5876ZM25.4146 8.53167C26.4176 10.3607 26.9418 12.4136 26.9384 14.4995C26.9384 19.0887 24.4511 23.0951 20.7531 25.2516L24.5526 14.2662C25.2627 12.4919 25.4984 11.073 25.4984 9.81073C25.4984 9.35345 25.4681 8.92788 25.4146 8.53167ZM14.5 0C22.4949 0 29.0005 6.50443 29.0007 14.4995C29.0007 22.4958 22.4949 29 14.5 29C6.50467 29 0 22.4956 0 14.4995C0 6.50443 6.5049 0 14.5 0ZM14.5 28.3351C22.128 28.3351 28.3344 22.1285 28.3344 14.4995C28.3344 6.8713 22.1282 0.665094 14.5 0.665094C6.8713 0.665094 0.664858 6.8713 0.664858 14.4995C0.664858 22.1285 6.87154 28.3351 14.5 28.3351Z" fill="#00749A"/>
</g>
<defs>
<clipPath id="clip0_213_50">
<rect width="29" height="29" fill="white"/>
</clipPath>
</defs>
</svg>
